<svg width="82" height="30" viewBox="0 0 82 30" fill="none" xmlns="http://www.w3.org/2000/svg">
<g clip-path="url(#clip0)">
<path d="M42.335 9.93671L46.2363 9.6883C46.3253 10.3166 46.4884 10.7843 46.7554 11.1203C47.1856 11.6464 47.7789 11.9094 48.5651 11.9094C49.1436 11.9094 49.6035 11.7779 49.915 11.5003C50.2117 11.2811 50.3897 10.9304 50.3897 10.5651C50.3897 10.2144 50.2265 9.87826 49.9447 9.65907C49.648 9.39604 48.9508 9.13301 47.8531 8.89921C46.0583 8.50466 44.7677 7.9786 44.0112 7.30642C43.2547 6.67807 42.8245 5.75746 42.8542 4.77841C42.8542 4.10622 43.0619 3.43403 43.4475 2.87875C43.8925 2.2504 44.5007 1.75357 45.2276 1.47592C46.0138 1.13983 47.1114 0.964478 48.491 0.964478C50.182 0.964478 51.4725 1.27135 52.3625 1.89969C53.2525 2.51343 53.7865 3.5071 53.9497 4.86608L50.093 5.08528C49.9892 4.50077 49.7815 4.077 49.4403 3.79935C49.0991 3.52171 48.6541 3.3902 48.0756 3.3902C47.6009 3.3902 47.2449 3.49249 47.0076 3.68245C46.7851 3.8578 46.6368 4.12083 46.6516 4.41309C46.6516 4.63228 46.7703 4.83686 46.9483 4.96837C47.1411 5.14373 47.6009 5.30447 48.3278 5.4506C50.1226 5.83053 51.3983 6.21046 52.1845 6.605C52.9707 6.99955 53.5344 7.48177 53.8755 8.05167C54.2316 8.63618 54.4096 9.30837 54.3947 9.99517C54.3947 10.8135 54.1574 11.6318 53.6827 12.3186C53.1932 13.0346 52.5109 13.5899 51.7098 13.926C50.8643 14.2913 49.7963 14.4813 48.5206 14.4813C46.2659 14.4813 44.7084 14.0575 43.8332 13.1954C42.958 12.3332 42.4389 11.2519 42.335 9.93671ZM0.934515 14.2621V1.19828H7.77279C9.03365 1.19828 10.0127 1.30057 10.6802 1.51976C11.3329 1.72434 11.9114 2.14811 12.297 2.71801C12.7272 3.34636 12.9349 4.077 12.92 4.83686C12.9645 6.12278 12.297 7.35026 11.1548 7.99322C10.7098 8.24163 10.2203 8.41699 9.71599 8.50466C10.0868 8.60695 10.4577 8.78231 10.784 8.98688C11.0362 9.19146 11.2438 9.42527 11.4367 9.67368C11.6592 9.9221 11.852 10.1997 12.0152 10.492L14.0029 14.2767H9.34515L7.14978 10.2582C6.86795 9.74675 6.63061 9.41065 6.4081 9.24991C6.11143 9.04534 5.75543 8.94305 5.39942 8.94305H5.04342V14.2475H0.934515V14.2621ZM5.04342 6.4881H6.77894C7.14978 6.45888 7.50579 6.40043 7.8618 6.31275C8.1288 6.26891 8.36614 6.12278 8.52931 5.90359C8.92981 5.37753 8.87048 4.63228 8.38097 4.17929C8.11397 3.96009 7.59479 3.84319 6.85311 3.84319H5.04342V6.4881ZM0 25.4555L3.90123 25.207C3.99023 25.8354 4.1534 26.303 4.42041 26.6391C4.83575 27.1652 5.44392 27.4428 6.2301 27.4428C6.80861 27.4428 7.26845 27.3113 7.57996 27.0336C7.87663 26.7998 8.05463 26.4637 8.05463 26.0984C8.05463 25.7477 7.89146 25.4116 7.60962 25.1924C7.31295 24.9294 6.61577 24.6664 5.50326 24.4326C3.70839 24.038 2.41787 23.512 1.66136 22.8398C0.904848 22.2114 0.474674 21.2908 0.504342 20.3118C0.504342 19.6396 0.712012 18.9674 1.09768 18.4121C1.54269 17.7838 2.15087 17.2869 2.87771 17.0093C3.66389 16.6732 4.76158 16.4978 6.1411 16.4978C7.83213 16.4978 9.12265 16.8047 10.0127 17.4331C10.9027 18.0614 11.4219 19.0405 11.585 20.3995L7.72829 20.6186C7.62446 20.0341 7.41679 19.6104 7.07562 19.3327C6.74928 19.0551 6.28944 18.9236 5.71093 18.9382C5.23625 18.9382 4.88025 19.0405 4.64291 19.245C4.40557 19.4204 4.27207 19.6834 4.2869 19.9757C4.2869 20.1949 4.40557 20.3995 4.58357 20.531C4.77641 20.7063 5.23625 20.8671 5.9631 21.0132C7.75796 21.3931 9.03365 21.7731 9.81983 22.1676C10.606 22.5621 11.1697 23.0444 11.5109 23.6143C11.8669 24.1988 12.0449 24.871 12.0449 25.5431C12.0449 26.3615 11.7927 27.1652 11.3329 27.852C10.8433 28.568 10.161 29.1233 9.35999 29.4594C8.51447 29.8247 7.44645 30.0146 6.17077 30.0146C3.91606 30.0146 2.35854 29.5909 1.48336 28.7287C0.608177 27.852 0.118669 26.7706 0 25.4555H0Z" fill="black"/>
<path d="M19.7287 24.4325L23.3184 25.4993C23.1256 26.3906 22.725 27.2382 22.1762 27.9834C21.6719 28.641 21.0043 29.1525 20.2478 29.4885C19.4765 29.8246 18.4975 30 17.3108 30C15.8719 30 14.6852 29.7954 13.7804 29.3863C12.8607 28.9771 12.0745 28.2465 11.407 27.209C10.7395 26.1714 10.4132 24.8417 10.4132 23.2197C10.4132 21.057 10.9917 19.3911 12.1635 18.2367C13.3354 17.0823 14.9819 16.4978 17.118 16.4978C18.7941 16.4978 20.0995 16.8339 21.0637 17.4915C22.013 18.1637 22.725 19.1865 23.1997 20.5601L19.5803 21.3492C19.4913 21.0424 19.3578 20.7355 19.1798 20.4725C18.9573 20.1656 18.6755 19.9318 18.3343 19.7564C17.9931 19.5811 17.6075 19.508 17.2218 19.508C16.2873 19.508 15.5753 19.8734 15.0858 20.6186C14.7149 21.1593 14.5221 22.0214 14.5221 23.1904C14.5221 24.6371 14.7446 25.6308 15.1896 26.1715C15.6346 26.7121 16.2576 26.9752 17.0735 26.9752C17.8596 26.9752 18.453 26.756 18.8535 26.3322C19.254 25.8792 19.5507 25.2508 19.7287 24.4325ZM28.1096 16.717H32.2037V21.2908H36.6834V16.717H40.8072V29.7808H36.6834V24.491H32.2037V29.7808H28.1096V16.717V16.717Z" fill="black"/>
<path d="M40.2435 23.2489C40.2435 21.1154 40.8516 19.4495 42.0532 18.2659C43.2547 17.0823 44.9457 16.4832 47.0966 16.4832C49.3068 16.4832 50.9978 17.0677 52.1993 18.2367C53.4009 19.4057 53.9942 21.0423 53.9942 23.1466C53.9942 24.6809 53.7272 25.923 53.208 26.9021C52.7037 27.8665 51.9175 28.6556 50.9533 29.1816C49.9595 29.7223 48.7283 30 47.2598 30C45.7616 30 44.5304 29.7661 43.5514 29.2985C42.5427 28.8017 41.712 28.0272 41.1632 27.0774C40.555 26.0545 40.2435 24.7832 40.2435 23.2489ZM44.3375 23.2635C44.3375 24.5786 44.5897 25.5284 45.0792 26.113C45.5687 26.6829 46.2511 26.9751 47.1114 26.9751C47.9866 26.9751 48.6689 26.6975 49.1584 26.1276C49.648 25.5577 49.8853 24.5494 49.8853 23.0881C49.8853 21.8606 49.6331 20.9547 49.1288 20.3994C48.6244 19.8295 47.9421 19.5518 47.0817 19.5518C46.3252 19.5226 45.5984 19.8441 45.0941 20.414C44.5897 20.9839 44.3375 21.9337 44.3375 23.2635V23.2635ZM58.1921 23.2489C58.1921 21.1154 58.8003 19.4495 60.0018 18.2659C61.2033 17.0823 62.8943 16.4832 65.0452 16.4832C67.2554 16.4832 68.9613 17.0677 70.148 18.2367C71.3346 19.4057 71.9428 21.0423 71.9428 23.1466C71.9428 24.6809 71.6758 25.923 71.1566 26.9021C70.6523 27.8665 69.8661 28.6556 68.9019 29.1816C67.9081 29.7223 66.6769 30 65.2084 30C63.7102 30 62.479 29.7661 61.5 29.2985C60.4913 28.8017 59.6606 28.0272 59.1118 27.0774C58.5036 26.0545 58.1921 24.7832 58.1921 23.2489V23.2489ZM62.2862 23.2635C62.2862 24.5786 62.5383 25.5284 63.0278 26.113C63.5174 26.6829 64.1997 26.9751 65.06 26.9751C65.9352 26.9751 66.6176 26.6975 67.1071 26.1276C67.5966 25.5577 67.8339 24.5494 67.8339 23.0881C67.8339 21.8606 67.5818 20.9547 67.0774 20.3994C66.5731 19.8295 65.8907 19.5518 65.0304 19.5518C64.2739 19.5226 63.5322 19.8441 63.0427 20.414C62.5383 20.9839 62.2862 21.9337 62.2862 23.2635V23.2635Z" fill="black"/>
<path d="M71.5127 16.717H75.6067V26.566H82V29.7809H71.4978V16.717H71.5127Z" fill="black"/>
<path d="M67.0001 15.9631C71.1219 12.9032 72.393 7.71616 69.839 4.37753C67.2851 1.0389 61.8733 0.812956 57.7514 3.87287C53.6296 6.93278 52.3586 12.1198 54.9125 15.4585C57.4664 18.7971 62.8782 19.023 67.0001 15.9631Z" stroke="black" stroke-width="4" stroke-miterlimit="10"/>
<path d="M58.207 8.95759L59.6903 7.9347L61.5149 10.4919C61.8264 10.9011 62.0637 11.3395 62.2417 11.8217C62.3455 12.187 62.3159 12.5816 62.1675 12.9323C61.9747 13.3706 61.6632 13.736 61.2478 13.999C60.7583 14.3351 60.343 14.5251 59.987 14.5835C59.6458 14.642 59.2898 14.5835 58.9635 14.4374C58.6075 14.262 58.296 14.0136 58.0586 13.6921L59.3343 12.5231C59.4381 12.6838 59.5717 12.83 59.72 12.9469C59.8238 13.0199 59.9425 13.0638 60.076 13.0638C60.1798 13.0638 60.2837 13.0199 60.3578 12.9615C60.5062 12.8738 60.61 12.6985 60.5952 12.5231C60.5507 12.2747 60.4468 12.0263 60.2837 11.8363L58.207 8.95759V8.95759ZM62.657 10.5796L64.0069 9.52749C64.1552 9.70284 64.3481 9.83436 64.5557 9.90742C64.8524 9.9951 65.1639 9.93665 65.4161 9.74668C65.5941 9.62978 65.7424 9.46904 65.8018 9.26446C65.8908 9.00143 65.7424 8.70918 65.4754 8.6215C65.4309 8.60689 65.3864 8.59227 65.3419 8.59227C65.1639 8.57766 64.8524 8.65072 64.3926 8.84069C63.6361 9.14756 63.0427 9.26446 62.5977 9.22062C62.1675 9.17678 61.767 8.95759 61.5297 8.59227C61.3517 8.34386 61.2627 8.0516 61.2478 7.75935C61.2478 7.42325 61.3368 7.08716 61.5297 6.80952C61.8115 6.41497 62.1527 6.07888 62.568 5.81585C63.191 5.39208 63.7399 5.1875 64.2146 5.1875C64.6892 5.1875 65.1342 5.40669 65.5496 5.85969L64.2146 6.89719C63.9476 6.5611 63.4432 6.48804 63.102 6.75107L63.0575 6.7949C62.9092 6.88258 62.8054 7.0141 62.746 7.17484C62.7015 7.29174 62.7312 7.42325 62.8054 7.52554C62.8647 7.59861 62.9537 7.65706 63.0575 7.65706C63.1762 7.67167 63.3839 7.61322 63.6805 7.4817C64.4222 7.17484 64.9859 6.99948 65.3716 6.94103C65.6979 6.88258 66.0391 6.91181 66.3506 7.04332C66.6324 7.16022 66.8698 7.3648 67.0329 7.61322C67.2406 7.90547 67.3593 8.25618 67.3741 8.6215C67.3889 9.00143 67.2851 9.36675 67.0774 9.68823C66.8104 10.0828 66.4693 10.4189 66.0688 10.6819C65.2529 11.2372 64.5854 11.471 64.0514 11.3833C63.4729 11.2956 62.9982 11.0034 62.657 10.5796V10.5796Z" fill="black"/>
</g>
<defs>
<clipPath id="clip0">
<rect width="82" height="30" fill="white"/>
</clipPath>
</defs>
</svg>
