<svg width="18" height="30" viewBox="0 0 18 30" fill="none" xmlns="http://www.w3.org/2000/svg">
<path d="M0.66581 16.1706L14.0162 29.5207C14.325 29.8298 14.7372 30 15.1767 30C15.6162 30 16.0284 29.8298 16.3371 29.5207L17.3203 28.5378C17.9601 27.8973 17.9601 26.8564 17.3203 26.2169L6.10967 15.0062L17.3327 3.78314C17.6415 3.47412 17.812 3.06217 17.812 2.6229C17.812 2.18315 17.6415 1.7712 17.3327 1.46194L16.3496 0.479263C16.0406 0.17024 15.6286 0 15.1891 0C14.7496 0 14.3374 0.17024 14.0286 0.479263L0.66581 13.8416C0.3563 14.1516 0.186302 14.5655 0.187279 15.0055C0.186302 15.4472 0.3563 15.8608 0.66581 16.1706Z" fill="#333333"/>
</svg>
